<mxfile host="app.diagrams.net" modified="2023-09-16T14:06:28.417Z" agent="Mozilla/5.0 (Windows NT 10.0; Win64; x64) AppleWebKit/537.36 (KHTML, like Gecko) Chrome/116.0.0.0 Safari/537.36" etag="lph6F_JuW0xNDmnPLnjf" version="21.6.6" type="google">
  <diagram name="Página-1" id="JgVTmVN_YgnaXwrowYD5">
    <mxGraphModel grid="1" page="1" gridSize="10" guides="1" tooltips="1" connect="1" arrows="1" fold="1" pageScale="1" pageWidth="827" pageHeight="1169" math="0" shadow="0">
      <root>
        <mxCell id="0" />
        <mxCell id="1" parent="0" />
        <mxCell id="-rPfsVsokpQ_0EkSPLrT-43" style="edgeStyle=orthogonalEdgeStyle;rounded=0;orthogonalLoop=1;jettySize=auto;html=1;endArrow=none;endFill=0;startArrow=block;startFill=0;" edge="1" parent="1" source="-rPfsVsokpQ_0EkSPLrT-1">
          <mxGeometry relative="1" as="geometry">
            <mxPoint x="347" y="190" as="targetPoint" />
          </mxGeometry>
        </mxCell>
        <mxCell id="-rPfsVsokpQ_0EkSPLrT-1" value="&lt;span style=&quot;font-weight: normal;&quot;&gt;« abstract »&lt;/span&gt;&lt;br&gt;Cafeteria" style="swimlane;fontStyle=1;align=center;verticalAlign=top;childLayout=stackLayout;horizontal=1;startSize=40;horizontalStack=0;resizeParent=1;resizeParentMax=0;resizeLast=0;collapsible=1;marginBottom=0;whiteSpace=wrap;html=1;" vertex="1" parent="1">
          <mxGeometry x="267" y="20" width="160" height="120" as="geometry">
            <mxRectangle x="334" y="100" width="90" height="30" as="alternateBounds" />
          </mxGeometry>
        </mxCell>
        <mxCell id="-rPfsVsokpQ_0EkSPLrT-2" value="+ descripcion" style="text;strokeColor=none;fillColor=none;align=left;verticalAlign=top;spacingLeft=4;spacingRight=4;overflow=hidden;rotatable=0;points=[[0,0.5],[1,0.5]];portConstraint=eastwest;whiteSpace=wrap;html=1;" vertex="1" parent="-rPfsVsokpQ_0EkSPLrT-1">
          <mxGeometry y="40" width="160" height="26" as="geometry" />
        </mxCell>
        <mxCell id="-rPfsVsokpQ_0EkSPLrT-3" value="" style="line;strokeWidth=1;fillColor=none;align=left;verticalAlign=middle;spacingTop=-1;spacingLeft=3;spacingRight=3;rotatable=0;labelPosition=right;points=[];portConstraint=eastwest;strokeColor=inherit;" vertex="1" parent="-rPfsVsokpQ_0EkSPLrT-1">
          <mxGeometry y="66" width="160" height="8" as="geometry" />
        </mxCell>
        <mxCell id="-rPfsVsokpQ_0EkSPLrT-4" value="+ valor()&lt;br&gt;+ getdescripcion" style="text;strokeColor=none;fillColor=none;align=left;verticalAlign=top;spacingLeft=4;spacingRight=4;overflow=hidden;rotatable=0;points=[[0,0.5],[1,0.5]];portConstraint=eastwest;whiteSpace=wrap;html=1;" vertex="1" parent="-rPfsVsokpQ_0EkSPLrT-1">
          <mxGeometry y="74" width="160" height="46" as="geometry" />
        </mxCell>
        <mxCell id="-rPfsVsokpQ_0EkSPLrT-17" value="Bebidas" style="swimlane;fontStyle=0;childLayout=stackLayout;horizontal=1;startSize=26;fillColor=none;horizontalStack=0;resizeParent=1;resizeParentMax=0;resizeLast=0;collapsible=1;marginBottom=0;whiteSpace=wrap;html=1;" vertex="1" parent="1">
          <mxGeometry x="143" y="232" width="140" height="52" as="geometry" />
        </mxCell>
        <mxCell id="-rPfsVsokpQ_0EkSPLrT-18" value="+ valor()" style="text;strokeColor=none;fillColor=none;align=left;verticalAlign=top;spacingLeft=4;spacingRight=4;overflow=hidden;rotatable=0;points=[[0,0.5],[1,0.5]];portConstraint=eastwest;whiteSpace=wrap;html=1;" vertex="1" parent="-rPfsVsokpQ_0EkSPLrT-17">
          <mxGeometry y="26" width="140" height="26" as="geometry" />
        </mxCell>
        <mxCell id="-rPfsVsokpQ_0EkSPLrT-38" style="rounded=0;orthogonalLoop=1;jettySize=auto;html=1;exitX=1;exitY=0.5;exitDx=0;exitDy=0;entryX=1;entryY=0.5;entryDx=0;entryDy=0;edgeStyle=orthogonalEdgeStyle;endArrow=block;endFill=1;startArrow=diamondThin;startFill=0;curved=1;" edge="1" parent="1" source="-rPfsVsokpQ_0EkSPLrT-21" target="-rPfsVsokpQ_0EkSPLrT-2">
          <mxGeometry relative="1" as="geometry">
            <mxPoint x="543" y="80" as="targetPoint" />
          </mxGeometry>
        </mxCell>
        <mxCell id="-rPfsVsokpQ_0EkSPLrT-42" style="edgeStyle=orthogonalEdgeStyle;rounded=0;orthogonalLoop=1;jettySize=auto;html=1;entryX=0.5;entryY=0;entryDx=0;entryDy=0;endArrow=none;endFill=0;" edge="1" parent="1" source="-rPfsVsokpQ_0EkSPLrT-21" target="-rPfsVsokpQ_0EkSPLrT-17">
          <mxGeometry relative="1" as="geometry">
            <Array as="points">
              <mxPoint x="453" y="190" />
              <mxPoint x="213" y="190" />
            </Array>
          </mxGeometry>
        </mxCell>
        <mxCell id="-rPfsVsokpQ_0EkSPLrT-21" value="« abstract »&lt;br&gt;AdicionalesDecorator" style="swimlane;fontStyle=0;childLayout=stackLayout;horizontal=1;startSize=50;fillColor=none;horizontalStack=0;resizeParent=1;resizeParentMax=0;resizeLast=0;collapsible=1;marginBottom=0;whiteSpace=wrap;html=1;" vertex="1" parent="1">
          <mxGeometry x="383" y="220" width="140" height="80" as="geometry" />
        </mxCell>
        <mxCell id="-rPfsVsokpQ_0EkSPLrT-22" value="+ getdescripcion" style="text;strokeColor=none;fillColor=none;align=left;verticalAlign=top;spacingLeft=4;spacingRight=4;overflow=hidden;rotatable=0;points=[[0,0.5],[1,0.5]];portConstraint=eastwest;whiteSpace=wrap;html=1;" vertex="1" parent="-rPfsVsokpQ_0EkSPLrT-21">
          <mxGeometry y="50" width="140" height="30" as="geometry" />
        </mxCell>
        <mxCell id="-rPfsVsokpQ_0EkSPLrT-44" style="edgeStyle=orthogonalEdgeStyle;rounded=0;orthogonalLoop=1;jettySize=auto;html=1;entryX=0.5;entryY=0;entryDx=0;entryDy=0;endArrow=none;endFill=0;" edge="1" parent="1" source="-rPfsVsokpQ_0EkSPLrT-25" target="-rPfsVsokpQ_0EkSPLrT-34">
          <mxGeometry relative="1" as="geometry">
            <Array as="points">
              <mxPoint x="293" y="390" />
              <mxPoint x="623" y="390" />
            </Array>
          </mxGeometry>
        </mxCell>
        <mxCell id="-rPfsVsokpQ_0EkSPLrT-25" value="Leche" style="swimlane;fontStyle=1;align=center;verticalAlign=top;childLayout=stackLayout;horizontal=1;startSize=30;horizontalStack=0;resizeParent=1;resizeParentMax=0;resizeLast=0;collapsible=1;marginBottom=0;whiteSpace=wrap;html=1;" vertex="1" parent="1">
          <mxGeometry x="233" y="430" width="120" height="114" as="geometry">
            <mxRectangle x="334" y="100" width="90" height="30" as="alternateBounds" />
          </mxGeometry>
        </mxCell>
        <mxCell id="-rPfsVsokpQ_0EkSPLrT-26" value="+ cafeteria" style="text;strokeColor=none;fillColor=none;align=left;verticalAlign=top;spacingLeft=4;spacingRight=4;overflow=hidden;rotatable=0;points=[[0,0.5],[1,0.5]];portConstraint=eastwest;whiteSpace=wrap;html=1;" vertex="1" parent="-rPfsVsokpQ_0EkSPLrT-25">
          <mxGeometry y="30" width="120" height="26" as="geometry" />
        </mxCell>
        <mxCell id="-rPfsVsokpQ_0EkSPLrT-27" value="" style="line;strokeWidth=1;fillColor=none;align=left;verticalAlign=middle;spacingTop=-1;spacingLeft=3;spacingRight=3;rotatable=0;labelPosition=right;points=[];portConstraint=eastwest;strokeColor=inherit;" vertex="1" parent="-rPfsVsokpQ_0EkSPLrT-25">
          <mxGeometry y="56" width="120" height="8" as="geometry" />
        </mxCell>
        <mxCell id="-rPfsVsokpQ_0EkSPLrT-28" value="+ valor()&lt;br&gt;+ getdescripcion" style="text;strokeColor=none;fillColor=none;align=left;verticalAlign=top;spacingLeft=4;spacingRight=4;overflow=hidden;rotatable=0;points=[[0,0.5],[1,0.5]];portConstraint=eastwest;whiteSpace=wrap;html=1;" vertex="1" parent="-rPfsVsokpQ_0EkSPLrT-25">
          <mxGeometry y="64" width="120" height="50" as="geometry" />
        </mxCell>
        <mxCell id="-rPfsVsokpQ_0EkSPLrT-46" style="edgeStyle=orthogonalEdgeStyle;rounded=0;orthogonalLoop=1;jettySize=auto;html=1;endArrow=block;endFill=0;entryX=0.595;entryY=0.889;entryDx=0;entryDy=0;entryPerimeter=0;" edge="1" parent="1">
          <mxGeometry relative="1" as="geometry">
            <mxPoint x="453" y="299.99999999999994" as="targetPoint" />
            <mxPoint x="469.70000000000005" y="433.33" as="sourcePoint" />
            <Array as="points">
              <mxPoint x="453" y="433" />
            </Array>
          </mxGeometry>
        </mxCell>
        <mxCell id="-rPfsVsokpQ_0EkSPLrT-29" value="Chocolate" style="swimlane;fontStyle=1;align=center;verticalAlign=top;childLayout=stackLayout;horizontal=1;startSize=30;horizontalStack=0;resizeParent=1;resizeParentMax=0;resizeLast=0;collapsible=1;marginBottom=0;whiteSpace=wrap;html=1;" vertex="1" parent="1">
          <mxGeometry x="407" y="430" width="120" height="114" as="geometry">
            <mxRectangle x="334" y="100" width="90" height="30" as="alternateBounds" />
          </mxGeometry>
        </mxCell>
        <mxCell id="-rPfsVsokpQ_0EkSPLrT-30" value="+ cafeteria" style="text;strokeColor=none;fillColor=none;align=left;verticalAlign=top;spacingLeft=4;spacingRight=4;overflow=hidden;rotatable=0;points=[[0,0.5],[1,0.5]];portConstraint=eastwest;whiteSpace=wrap;html=1;" vertex="1" parent="-rPfsVsokpQ_0EkSPLrT-29">
          <mxGeometry y="30" width="120" height="26" as="geometry" />
        </mxCell>
        <mxCell id="-rPfsVsokpQ_0EkSPLrT-31" value="" style="line;strokeWidth=1;fillColor=none;align=left;verticalAlign=middle;spacingTop=-1;spacingLeft=3;spacingRight=3;rotatable=0;labelPosition=right;points=[];portConstraint=eastwest;strokeColor=inherit;" vertex="1" parent="-rPfsVsokpQ_0EkSPLrT-29">
          <mxGeometry y="56" width="120" height="8" as="geometry" />
        </mxCell>
        <mxCell id="-rPfsVsokpQ_0EkSPLrT-32" value="+ valor()&lt;br&gt;+ getdescripcion" style="text;strokeColor=none;fillColor=none;align=left;verticalAlign=top;spacingLeft=4;spacingRight=4;overflow=hidden;rotatable=0;points=[[0,0.5],[1,0.5]];portConstraint=eastwest;whiteSpace=wrap;html=1;" vertex="1" parent="-rPfsVsokpQ_0EkSPLrT-29">
          <mxGeometry y="64" width="120" height="50" as="geometry" />
        </mxCell>
        <mxCell id="-rPfsVsokpQ_0EkSPLrT-34" value="Canela" style="swimlane;fontStyle=1;align=center;verticalAlign=top;childLayout=stackLayout;horizontal=1;startSize=30;horizontalStack=0;resizeParent=1;resizeParentMax=0;resizeLast=0;collapsible=1;marginBottom=0;whiteSpace=wrap;html=1;" vertex="1" parent="1">
          <mxGeometry x="563" y="430" width="120" height="114" as="geometry">
            <mxRectangle x="334" y="100" width="90" height="30" as="alternateBounds" />
          </mxGeometry>
        </mxCell>
        <mxCell id="-rPfsVsokpQ_0EkSPLrT-35" value="+ cafeteria" style="text;strokeColor=none;fillColor=none;align=left;verticalAlign=top;spacingLeft=4;spacingRight=4;overflow=hidden;rotatable=0;points=[[0,0.5],[1,0.5]];portConstraint=eastwest;whiteSpace=wrap;html=1;" vertex="1" parent="-rPfsVsokpQ_0EkSPLrT-34">
          <mxGeometry y="30" width="120" height="26" as="geometry" />
        </mxCell>
        <mxCell id="-rPfsVsokpQ_0EkSPLrT-36" value="" style="line;strokeWidth=1;fillColor=none;align=left;verticalAlign=middle;spacingTop=-1;spacingLeft=3;spacingRight=3;rotatable=0;labelPosition=right;points=[];portConstraint=eastwest;strokeColor=inherit;" vertex="1" parent="-rPfsVsokpQ_0EkSPLrT-34">
          <mxGeometry y="56" width="120" height="8" as="geometry" />
        </mxCell>
        <mxCell id="-rPfsVsokpQ_0EkSPLrT-37" value="+ valor()&lt;br&gt;+ getdescripcion" style="text;strokeColor=none;fillColor=none;align=left;verticalAlign=top;spacingLeft=4;spacingRight=4;overflow=hidden;rotatable=0;points=[[0,0.5],[1,0.5]];portConstraint=eastwest;whiteSpace=wrap;html=1;" vertex="1" parent="-rPfsVsokpQ_0EkSPLrT-34">
          <mxGeometry y="64" width="120" height="50" as="geometry" />
        </mxCell>
      </root>
    </mxGraphModel>
  </diagram>
</mxfile>
